<?xml version="1.0" standalone="no"?>
<!DOCTYPE svg PUBLIC "-//W3C//DTD SVG 20010904//EN"
 "http://www.w3.org/TR/2001/REC-SVG-20010904/DTD/svg10.dtd">
<svg version="1.0" xmlns="http://www.w3.org/2000/svg"
 width="150.000000pt" height="175.000000pt" viewBox="0 0 150.000000 175.000000"
 preserveAspectRatio="xMidYMid meet">

<g transform="translate(0.000000,175.000000) scale(0.100000,-0.100000)"
fill="#000000" stroke="none">
<path d="M390 1393 c0 -4 9 -17 21 -29 l20 -22 -34 -48 c-102 -142 -115 -349
-30 -494 76 -129 230 -229 355 -230 23 0 27 -4 30 -35 2 -20 8 -35 13 -35 6 0
11 15 13 35 3 31 7 35 30 35 67 0 181 45 239 94 30 25 30 25 48 6 18 -20 45
-27 45 -12 0 11 -53 62 -64 62 -5 0 -24 -14 -44 -31 -46 -41 -123 -75 -202
-89 -131 -24 -275 26 -374 129 -83 87 -109 152 -114 276 -5 137 9 177 113 321
7 10 1 22 -20 44 -28 29 -45 38 -45 23z"/>
<path d="M670 1367 c-95 -27 -182 -104 -227 -202 -23 -50 -27 -73 -27 -140 0
-69 5 -91 31 -147 37 -79 98 -142 173 -177 46 -21 70 -26 145 -26 77 0 98 4
146 26 79 37 133 90 171 167 30 60 33 75 33 157 0 77 -4 98 -27 147 -34 72
-104 143 -174 175 -66 30 -177 39 -244 20z m231 -46 c67 -32 120 -81 154 -142
28 -50 30 -62 30 -154 0 -92 -2 -104 -30 -154 -126 -228 -449 -229 -574 -1
-34 61 -36 70 -36 155 0 78 4 97 27 140 44 85 117 146 208 176 46 15 171 4
221 -20z"/>
<path d="M587 451 c-23 -7 -37 -35 -37 -78 l0 -43 215 0 215 0 0 49 c0 29 -6
53 -14 60 -13 11 -347 22 -379 12z m363 -35 c6 -8 10 -25 8 -38 l-3 -23 -190
0 -190 0 2 29 c1 16 8 33 15 38 7 4 88 8 179 8 133 0 169 -3 179 -14z"/>
</g>
</svg>
