<?xml version="1.0" standalone="no"?>
<!DOCTYPE svg PUBLIC "-//W3C//DTD SVG 20010904//EN"
 "http://www.w3.org/TR/2001/REC-SVG-20010904/DTD/svg10.dtd">
<svg version="1.0" xmlns="http://www.w3.org/2000/svg"
 width="1920.000000pt" height="1920.000000pt" viewBox="0 0 1920.000000 1920.000000"
 preserveAspectRatio="xMidYMid meet">

<g transform="translate(0.000000,1920.000000) scale(0.100000,-0.100000)"
fill="#000000" stroke="none">
<path d="M5773 15016 c-195 -48 -364 -217 -414 -416 -12 -47 -14 -817 -14
-5010 l0 -4955 22 -70 c63 -200 224 -349 420 -390 101 -22 7513 -22 7614 -1
199 42 365 199 426 402 17 56 18 252 21 3934 2 2844 0 3889 -8 3927 l-11 53
-1251 1251 c-688 688 -1265 1260 -1282 1270 -30 18 -104 19 -2751 18 -2159 -1
-2731 -3 -2772 -13z m5277 -1293 c0 -1087 -1 -1055 67 -1186 49 -93 146 -191
233 -234 131 -66 84 -63 1172 -63 l988 0 -2 -3793 -3 -3794 -30 -49 c-21 -34
-46 -58 -80 -76 l-50 -28 -3762 3 -3761 2 -43 30 c-27 19 -54 50 -71 84 l-28
53 0 4915 c0 3654 3 4925 11 4954 22 71 87 131 164 150 17 4 1192 7 2613 8
l2582 1 0 -977z m1393 -1151 c-596 -2 -843 0 -882 8 -63 14 -125 64 -152 125
-18 38 -19 89 -19 895 l0 855 940 -940 940 -940 -827 -3z"/>
<path d="M6701 12420 c-18 -4 -45 -17 -60 -27 -33 -24 -71 -98 -71 -139 0 -51
40 -115 90 -141 l43 -23 1329 0 c1093 0 1334 2 1361 14 44 18 95 78 103 122
13 68 -26 147 -89 182 -30 16 -121 17 -1352 19 -726 0 -1335 -2 -1354 -7z"/>
<path d="M6684 10979 c-18 -5 -48 -27 -67 -48 -80 -88 -52 -212 58 -262 38
-18 147 -19 2920 -19 2774 0 2881 1 2920 19 136 62 136 240 0 302 -39 18 -146
19 -2920 18 -1693 -1 -2893 -5 -2911 -10z"/>
<path d="M6664 9746 c-58 -26 -101 -107 -91 -172 9 -52 44 -102 88 -124 38
-20 73 -20 2935 -20 l2897 0 43 25 c46 27 84 90 84 141 0 40 -39 113 -73 138
l-28 21 -2912 2 c-2422 2 -2917 0 -2943 -11z"/>
<path d="M6675 8526 c-43 -18 -93 -79 -101 -122 -12 -67 27 -148 86 -179 42
-22 5825 -23 5868 -1 61 31 98 104 87 173 -7 51 -53 109 -102 129 -47 20
-5793 20 -5838 0z"/>
<path d="M6685 7305 c-75 -26 -125 -112 -111 -189 8 -44 59 -104 103 -122 48
-21 5788 -21 5836 0 50 20 95 78 102 130 6 37 3 55 -16 93 -28 54 -60 81 -115
93 -23 6 -1216 9 -2899 9 -2439 0 -2866 -2 -2900 -14z"/>
<path d="M6656 6067 c-45 -25 -86 -93 -86 -141 0 -42 38 -115 73 -140 l28 -21
2923 0 2923 0 35 27 c95 72 82 225 -23 278 -38 20 -73 20 -2936 20 l-2898 0
-39 -23z"/>
</g>
</svg>
